<?xml version="1.0" encoding="UTF-8"?>
<svg id="Calque_2" data-name="Calque 2" xmlns="http://www.w3.org/2000/svg" viewBox="0 0 87.52 247.88">
  <defs>
    <style>
      .cls-1 {
        fill: #91c3e4;
      }
    </style>
  </defs>
  <g id="Calque_1-2" data-name="Calque 1">
    <path class="cls-1" d="M35.48,239.89c6.36,4.87,15.1,3.78,20.07-2.81,2.46-3.27,3.64-8.89,3.39-13.22l-1.34-23.21c-15.3,3.98-30.31.12-41.53-11.61-7.12-7.45-12.47-16.59-14.69-27.39-3.88-18.92.46-38.85,11.72-53.84,7.48-9.95,16.37-17.21,26.05-24.21,2.07-1.49,4.27-3.45,5.99-5.28-1.81-23.12-6.93-61.23,12.46-76.75,8.49-6.8,16.89,10.23,18.58,17.57,6.61,28.86-.98,59.83-23.85,77.36l2.2,26.83c19.14-.5,33.39,16.1,32.97,36.7-.36,17.75-9.52,32.73-25,38.87.63,9.34,1.29,18.27,1.11,27.54-.26,13.09-9.85,22.73-21.65,21.29-8.5-1.04-16.05-6.51-19.13-15.13-2.46-6.88.48-14.15,6.21-16.77,6.1-2.8,13.04.78,15.05,7.52s-1.49,13.92-8.61,16.53ZM51.17,72.8c12.76-12.16,24.62-31.46,19.43-49.57-1.03-2.55-2.77-4.95-5.15-5.45-1.87-.4-4.36.87-6.27,2.28-11.87,13.59-8.18,34.31-8.01,52.74ZM36.58,162.54c.54,5.99,3.26,10.91,6.08,16.11-12.48-5.09-18.05-19.47-14.73-33.16,2.68-11.08,10.93-18.57,21.69-21.2l-2.48-24.42-13.64,8.96c-9.05,7.47-17.9,15.77-22.63,27.35-5.35,13.08-2.62,27.46,3.96,39.27,8.9,15.95,25.23,24.15,42.16,19.64l-5.25-50.85c-9.59,1.49-16.1,7.98-15.16,18.31ZM73.58,154.41c-3.05-7.13-9.61-10.57-17.38-10.63l5.41,48.74c13.13-7.1,18.35-23.19,11.97-38.1Z"/>
  </g>
</svg>