<svg id="coeur_1" xmlns="http://www.w3.org/2000/svg" xmlns:xlink="http://www.w3.org/1999/xlink" width="60.882" height="54.149" viewBox="0 0 60.882 54.149">
  <defs>
    <clipPath id="clip-path">
      <rect id="Rectangle_46" data-name="Rectangle 46" width="60.882" height="54.149" transform="translate(0 0)" fill="#ffc720"/>
    </clipPath>
  </defs>
  <g id="Groupe_68" data-name="Groupe 68" clip-path="url(#clip-path)">
    <path id="Tracé_18" data-name="Tracé 18" d="M60.882,16.876v2.735a21.936,21.936,0,0,1-2.109,7.535c-2.05,4.37-6.58,9.192-10.174,12.4l-4.41,3.932L32.816,53.251a3.583,3.583,0,0,1-4.748,0L15.679,42.585c-2.481-2.134-4.8-4.27-7.068-6.614C3.487,30.67-.486,24.6.048,16.929A19.132,19.132,0,0,1,3.9,6.408,16.409,16.409,0,0,1,16.4.012C22.259-.2,27.015,2.661,30.441,7.327,34.018,2.456,39.032-.422,45.113.057A16.334,16.334,0,0,1,56.924,6.334a19.9,19.9,0,0,1,3.958,10.542" fill="#ffc720"/>
  </g>
</svg>
