<svg xmlns="http://www.w3.org/2000/svg" xmlns:xlink="http://www.w3.org/1999/xlink" width="155.334" height="148.929" viewBox="0 0 155.334 148.929">
  <defs>
    <clipPath id="clip-path">
      <rect id="Rectangle_28" data-name="Rectangle 28" width="155.334" height="148.929" fill="#ffc720"/>
    </clipPath>
  </defs>
  <g id="etoile_1" transform="translate(-882 -764)">
    <g id="Groupe_19" data-name="Groupe 19" transform="translate(882 764)">
      <g id="Groupe_18" data-name="Groupe 18" clip-path="url(#clip-path)">
        <path id="Tracé_10" data-name="Tracé 10" d="M155.333,56.757V60.7c-.723,2.5-2.282,4.008-4.286,5.763L118.727,94.77l10.119,44.81c.752,3.331-1.576,6.68-3.986,8.132-3.093,1.863-6.23,1.461-9.244-.346L77.694,124.642,39.968,147.263c-3.3,1.98-6.881,2.359-9.958.124a8.578,8.578,0,0,1-3.264-9.071L36.7,94.761,4.3,66.513c-3.907-3.406-5.991-8.139-2.577-12.74,1.942-2.7,5.07-3.231,8.35-3.524l42.277-3.787L70.006,5.146a8.318,8.318,0,0,1,15.291-.2l17.748,41.524,42.6,3.736c4.614.4,8.16,2.108,9.685,6.556" transform="translate(0 0)" fill="#ffc720"/>
      </g>
    </g>
    <text id="_1" data-name="1" transform="translate(942 880)" fill="#fff" font-size="100" font-family="MusicianDemo, Musician"><tspan x="0" y="0">1</tspan></text>
  </g>
</svg>
