<?xml version="1.0" encoding="UTF-8"?>
<svg id="Calque_2" data-name="Calque 2" xmlns="http://www.w3.org/2000/svg" width="325.5" height="157.73" viewBox="0 0 325.5 157.73">
  <defs>
    <style>
      .cls-1 {
        fill: #fff;
      }
    </style>
  </defs>
  <g id="Calque_1-2" data-name="Calque 1">
    <g>
      <g>
        <path class="cls-1" d="M188.95,157.73h-6.7v-11.57c.5-.02.94,0,1.31-.05l5.39-.64v12.25Z"/>
        <path class="cls-1" d="M179.38,107.38c.17-2.7-2.29-3.88-4.51-3.68,1.21.6,2.22,1.55,2.22,3.04l.04,33.75c0,2.46,1.76,4.31,3.75,5.3l-5.06-.82c-2.96-.48-5.03-2.71-5.23-5.75-.14-2.18.3-4.5-.17-6.65-.39-1.76-1.64-3.21-1.52-5.12l1.64-1.1c.06-.92.05-1.87,0-2.89l-1.78.99c-.16.09-.67-.06-.7-.23l-.39-2.04c.95-.76,1.79-1.32,2.89-1.94v-2.92s-2.91,1.67-2.91,1.67c-.2.11-.75,0-.8-.22l-.37-1.87c1.27-1.19,2.54-2.02,4.09-2.84l-.04-2.87c-1.43.7-2.8,1.53-4.08,2.35-.92.59-1.06-1.48-1.07-1.99,1.4-1.66,3.33-2.67,5.2-3.72-.06-1.14.12-2.14.79-3.19-2.19.95-4.07,2.04-5.94,3.36-.16.12-.53.29-.67.2-.27-.17-1.13-1.59.21-2.86,1.67-1.57,3.66-2.75,5.76-3.75.75-.36,1.14-.85.92-1.7-.17-.68-1.03-1.09-1.78-.74-2.21,1.03-4.17,2.28-6.19,3.76-.52-.56-.92-1.56-.51-2.21,1.23-1.95,4.56-3.82,6.63-4.88.62-.32.88-1.01.64-1.59-.25-.61-1-1.06-1.69-.73-2.36,1.13-4.49,2.45-6.5,4.25-.47-2.02-.81-3.92-.41-5.88.37-1.81,1.06-3.56,2.1-5.1,2.85-4.2,9.25-7.73,13.99-9.3.87-.29,2.06.1,2.86.34,1.24.38,2.08,1.25,2.68,2.35,1.53,2.83.44,5.11,2.64,4.77.42-.06,1.09-.5,1.07-1.09-.07-1.64-.5-3.19-1.12-4.68-.51-1.21-1.37-2.08-2.51-2.79,2.58-.33,5.06.69,6.58,2.75,2.6,3.53,1.19,6.31,3.2,6.18.46-.03,1.14-.41,1.11-1.03-.16-2.85-1.62-6.42-4.34-7.91,2.69-.04,4.75,1.65,5.97,3.9,1.82,3.34.83,5.29,2.45,5.3,2.08.01.24-3.76-.02-4.94,1.84,2.01,2.68,4.57,3.14,7.34-1.72-.04-6.02-1.78-6.01.63,0,.75.54,1.19,1.31,1.27,2.3.25,6.29.4,5.74,3.55-1.68-.29-3.23-.54-4.82-.57-.69-.01-1.12.7-1.13,1.24s.44,1.21,1.09,1.28c1.46.14,2.85.27,4.27.61,1.31.31,2.1,1.64,1.71,2.86-1.63-.21-3.06-.38-4.61-.48-.69-.04-1.24.51-1.34,1.07-.11.62.33,1.41,1.05,1.46,1.48.11,2.92.24,4.36.51,1.34.26,2.07,1.54,1.82,2.84l-4.61-.36c-.79-.06-1.44.46-1.52,1.16-.08.81.51,1.41,1.37,1.43,1.38.04,2.7.16,4.07.32s2.26,1.63,1.76,2.87l-4.9-.2c-.74-.03-1.26.77-1.22,1.33.14,2.03,3.05.76,6.25,1.66,1.04.29,1.46,1.76,1.06,2.65l-4.85-.07c-.76-.01-1.33.61-1.34,1.26-.02.74.56,1.31,1.34,1.31l4.88.03c.5,0,.97.4,1.07.9l.94,4.4c.55,2.56-.4,5.04-2.3,6.79-1.46,1.35-3.13,2.21-4.95,3.04-2.85,1.12-5.7,1.91-8.74,2.54-4.66.96-9.26,1.61-14.06,1.74v-27.4c.44.07.91.13,1.23.02,5.48-1.97,9.05-3.12,14.96-3.22.81-.01,1.27-.79,1.22-1.43-.06-.72-.66-1.19-1.46-1.16-6.28.24-9.86,1.28-15.91,3.49ZM191.86,89.64c.79.02,1.42-.31,1.54-1.05.1-.61-.29-1.46-1.07-1.49-2.47-.1-4.86-.04-7.3.25-3.11.37-5.93,1.44-8.79,2.65-.79.33-1.29,1.01-.99,1.77s1.11,1.03,1.89.68c5.36-2.44,8.77-2.96,14.73-2.81ZM192.95,95.25c.78.02,1.38-.33,1.54-1.05.13-.56-.24-1.48-1-1.5-6.47-.21-10.15.67-16.03,3.05-.78.31-1.3.9-1.02,1.71.25.72,1.01,1.09,1.78.77,5.28-2.23,8.91-3.1,14.72-2.97ZM194.33,100.84c.78-.01,1.29-.56,1.32-1.28.02-.56-.42-1.25-1.16-1.26-6.36-.08-10.12,1.02-15.92,3.23-.75.29-1.1.9-.9,1.62.18.68.88,1.13,1.66.83,5.87-2.24,8.6-3.04,15-3.15ZM181.85,115.38c5.22-1.84,9.19-2.99,14.69-3.25.8-.04,1.35-.54,1.35-1.27s-.55-1.33-1.36-1.3c-5.85.24-10.02,1.48-15.48,3.36-.79.27-1.16.87-.96,1.68.17.66.91,1.07,1.75.77ZM198.05,117.73c.68-.07,1.04-.89.97-1.39-.09-.63-.64-1.15-1.37-1.1-5.55.33-10.21,1.68-15.43,3.41-.75.25-1.11.89-.95,1.58s.9,1.13,1.67.89c6.01-1.95,8.76-2.77,15.11-3.38ZM200.8,132.03c1.55-.33,2.67-1.14,3.83-1.92,3.18-2.6,2.77-5.97,2.14-9.64-.12-.7-.72-1.05-1.35-.9-.56.14-.82.72-.7,1.36.67,3.59,1.46,7.6-2.04,9.9l-1.87,1.2ZM194.73,133.08c1.39.47,4.16-1.22,5.15-1.9,3.55-2.43,3-6.28,2.31-10.08-.14-.77-.74-1.24-1.45-1.07-.66.16-.99.77-.85,1.48.64,3.41,1.32,7.15-2.08,9.3-1.29.82-3.31,1.43-3.08,2.27ZM188.96,134.46c1.82-.54,3.52-1.32,4.97-2.49,3.08-2.5,2.31-6.33,1.69-9.92-.15-.87-.7-1.46-1.63-1.27-.71.15-1.1.88-.92,1.74.32,1.53.54,3.09.46,4.64-.18,3.41-3.53,4.72-6.29,5.8-.23.09-.53.52-.53.74,0,.75,1.42,1.02,2.26.77Z"/>
        <path class="cls-1" d="M183.96,143.82c-1.46.18-2.84-.35-3.63-1.46l8.86-1.23c2.37-.33,3.74-2.4,3.71-4.67l5.96-1.46c.04.82.08,1.65.02,2.57-.16,2.34-1.97,4.61-4.39,4.92l-10.53,1.34Z"/>
      </g>
      <path class="cls-1" d="M0,73.85V4.45c0-1.02.83-1.85,1.85-1.85h17.25c19.6,0,23.5,7.5,23.5,22.4l.1,27.7c0,15.4-4,23-23.6,23H1.85c-1.02,0-1.85-.83-1.85-1.85ZM15.9,61.85c0,1.02.83,1.85,1.85,1.85h.05c6.2,0,8.8-2.6,8.7-10.6l-.1-27.9c0-8-2.5-10.7-8.3-10.7h-.35c-1.02,0-1.85.83-1.85,1.85v45.5Z"/>
      <path class="cls-1" d="M50.85,18.7h11.69c1.02,0,1.85.83,1.85,1.85v38.45c0,3.7.4,5,2.8,5,1.11,0,2.28-.11,3.59-.41.83-.19,1.41-.95,1.41-1.8V20.55c0-1.02.83-1.85,1.85-1.85h11.69c1.02,0,1.85.83,1.85,1.85v53.3c0,1.02-.83,1.85-1.85,1.85h-9.59c-.85,0-1.6-.58-1.8-1.42h0c-.28-1.15-1.56-1.74-2.63-1.22-4.46,2.2-8.19,3.32-11.93,3.23-7.1,0-10.8-3.3-10.8-15.1V20.55c0-1.02.83-1.85,1.85-1.85Z"/>
      <path class="cls-1" d="M94.1,40.3c0-16.7,3.7-22.1,19.5-22.1,16.8,0,18.9,6.6,18.9,22.8v7.85c0,1.02-.83,1.85-1.85,1.85h-19.29c-1.02,0-1.85.83-1.85,1.85v6.45c0,4.7.8,5.8,4,5.9,3.4,0,4.3-1.5,4.3-4.7v-2.35c0-1.02.83-1.85,1.85-1.85h10.99c1.02,0,1.85.83,1.85,1.85v2.95c0,10.5-4.8,15.4-19.1,15.4-16.2,0-19.3-5.6-19.3-21v-14.9ZM111.35,41h4.69c1.02,0,1.85-.83,1.85-1.85v-4.65c0-3.9-1.2-5.1-4-5.1-3.2,0-4.4,1.2-4.4,5.1v4.65c0,1.02.83,1.85,1.85,1.85Z"/>
      <path class="cls-1" d="M142.75,0h11.69c1.02,0,1.85.83,1.85,1.85v72c0,1.02-.83,1.85-1.85,1.85h-11.69c-1.02,0-1.85-.83-1.85-1.85V1.85c0-1.02.83-1.85,1.85-1.85Z"/>
      <path class="cls-1" d="M52.31,104.2c0-10.5,2.4-12.34,7.37-12.34,1.61,0,3.58.36,5.42,1.12.75.31,1.58-.23,1.58-1.04v-10.12c0-.63.51-1.14,1.14-1.14h7.18c.63,0,1.14.51,1.14,1.14v44.21c0,.63-.51,1.14-1.14,1.14h-5.87c-.53,0-.99-.37-1.11-.89l-.03-.14c-.16-.71-.95-1.1-1.6-.78-3.6,1.76-5.6,2.11-7.25,2.11-4.91,0-6.82-2.33-6.82-10.5v-12.77ZM61.76,115.44c0,3.44.68,4.48,2.64,4.48.46,0,.9-.06,1.44-.21.49-.14.83-.59.83-1.1v-17.99c0-.53-.37-1-.89-1.11-.43-.09-.86-.16-1.38-.16-1.9,0-2.64.8-2.64,4.54v11.55Z"/>
      <path class="cls-1" d="M80.12,105.43c0-10.26,2.27-13.57,11.98-13.57,10.32,0,11.61,4.05,11.61,14v4.82c0,.63-.51,1.14-1.14,1.14h-11.85c-.63,0-1.14.51-1.14,1.14v3.96c0,2.89.49,3.56,2.46,3.62,2.09,0,2.64-.92,2.64-2.89v-1.44c0-.63.51-1.14,1.14-1.14h6.75c.63,0,1.14.51,1.14,1.14v1.81c0,6.45-2.95,9.46-11.73,9.46-9.95,0-11.85-3.44-11.85-12.9v-9.15ZM90.72,105.86h2.88c.63,0,1.14-.51,1.14-1.14v-2.85c0-2.4-.74-3.13-2.46-3.13-1.97,0-2.7.74-2.7,3.13v2.85c0,.63.51,1.14,1.14,1.14Z"/>
      <path class="cls-1" d="M110.4,155.87v-69.4c0-1.02.83-1.85,1.85-1.85h11.55c.78,0,1.48.49,1.74,1.22l10.46,28.86c.71,1.95,3.6,1.44,3.6-.63v-27.6c0-1.02.83-1.85,1.85-1.85h11.69c1.02,0,1.85.83,1.85,1.85v69.4c0,1.02-.83,1.85-1.85,1.85h-10.8c-.75,0-1.43-.46-1.72-1.15l-11.26-27.67c-.77-1.88-3.57-1.34-3.57.7v26.28c0,1.02-.83,1.85-1.85,1.85h-11.69c-1.02,0-1.85-.83-1.85-1.85Z"/>
      <path class="cls-1" d="M237.24,112.12h-3.09c-1.02,0-1.85.83-1.85,1.85v26.55c0,4.7.9,5.8,4.1,5.9h.85c1.02,0,1.85.83,1.85,1.85v7.59c0,1.02-.83,1.85-1.85,1.85h-5.95c-13.8,0-14.4-5.5-14.4-20.9v-22.85c0-1.02-.83-1.85-1.85-1.85h-.69c-1.02,0-1.85-.83-1.85-1.85v-7.69c0-1.02.83-1.85,1.85-1.85h.69c1.02,0,1.85-.83,1.85-1.85v-4.79c0-1.02.83-1.85,1.85-1.85h11.69c1.02,0,1.85.83,1.85,1.85v4.79c0,1.02.83,1.85,1.85,1.85h3.09c1.02,0,1.85.83,1.85,1.85v7.69c0,1.02-.83,1.85-1.85,1.85Z"/>
      <path class="cls-1" d="M243.5,121.82c0-16.7,3.7-22.1,19.5-22.1,16.8,0,18.9,6.6,18.9,22.8v7.85c0,1.02-.83,1.85-1.85,1.85h-19.29c-1.02,0-1.85.83-1.85,1.85v6.45c0,4.7.8,5.8,4,5.9,3.4,0,4.3-1.5,4.3-4.7v-2.35c0-1.02.83-1.85,1.85-1.85h10.99c1.02,0,1.85.83,1.85,1.85v2.95c0,10.5-4.8,15.4-19.1,15.4-16.2,0-19.3-5.6-19.3-21v-14.9ZM260.75,122.52h4.69c1.02,0,1.85-.83,1.85-1.85v-4.65c0-3.9-1.2-5.1-4-5.1-3.2,0-4.4,1.2-4.4,5.1v4.65c0,1.02.83,1.85,1.85,1.85Z"/>
      <path class="cls-1" d="M287.49,116.12c0-10.1,5.7-16.4,18.2-16.4,12.7-.1,19.3,5.7,19.3,18.4v1.4h-13.6v-.4c0-5.9-1.3-7.7-5.1-7.7-2.3,0-4.1,1.1-4.1,3.6v.1c0,2.2,1.2,4.6,5.3,6.8l7.9,4.1c6.8,3.6,10.1,8.3,10.1,15.7v.1c0,10.4-6.6,15.8-19.2,15.9-12.7,0-18.5-4.5-18.5-18.2v-.15c0-1.02.83-1.85,1.85-1.85h11.45v.9c0,5.8,1.6,7.5,5.2,7.5,3,0,4.6-1.4,4.6-3.8v-.1c0-2.3-1.2-4.2-4.5-5.9l-8.2-4.2c-6.8-3.5-10.7-7.8-10.7-15.7v-.1Z"/>
    </g>
  </g>
</svg>