<?xml version="1.0" encoding="UTF-8"?>
<svg id="Calque_2" data-name="Calque 2" xmlns="http://www.w3.org/2000/svg" viewBox="0 0 325.7 243.36">
  <defs>
    <style>
      .cls-1 {
        fill: #fff;
      }
    </style>
  </defs>
  <g id="Calque_1-2" data-name="Calque 1">
    <path class="cls-1" d="M0,86.76V17.37c0-1.02.83-1.85,1.85-1.85h17.25c19.6,0,23.5,7.5,23.5,22.4l.1,27.7c0,15.4-4,23-23.6,23H1.85c-1.02,0-1.85-.83-1.85-1.85ZM15.9,74.76c0,1.02.83,1.85,1.85,1.85h.05c6.2,0,8.8-2.6,8.7-10.6l-.1-27.9c0-8-2.5-10.7-8.3-10.7h-.35c-1.02,0-1.85.83-1.85,1.85v45.5Z"/>
    <path class="cls-1" d="M50.85,31.61h11.69c1.02,0,1.85.83,1.85,1.85v38.45c0,3.7.4,5,2.8,5,1.11,0,2.28-.11,3.59-.41.83-.19,1.41-.95,1.41-1.8v-41.23c0-1.02.83-1.85,1.85-1.85h11.69c1.02,0,1.85.83,1.85,1.85v53.3c0,1.02-.83,1.85-1.85,1.85h-9.59c-.85,0-1.6-.58-1.8-1.42h0c-.28-1.15-1.56-1.74-2.63-1.22-4.46,2.2-8.19,3.32-11.93,3.23-7.1,0-10.8-3.3-10.8-15.1v-40.65c0-1.02.83-1.85,1.85-1.85Z"/>
    <path class="cls-1" d="M94.1,53.21c0-16.7,3.7-22.1,19.5-22.1,16.8,0,18.9,6.6,18.9,22.8v7.85c0,1.02-.83,1.85-1.85,1.85h-19.29c-1.02,0-1.85.83-1.85,1.85v6.45c0,4.7.8,5.8,4,5.9,3.4,0,4.3-1.5,4.3-4.7v-2.35c0-1.02.83-1.85,1.85-1.85h10.99c1.02,0,1.85.83,1.85,1.85v2.95c0,10.5-4.8,15.4-19.1,15.4-16.2,0-19.3-5.6-19.3-21v-14.9ZM111.35,53.91h4.69c1.02,0,1.85-.83,1.85-1.85v-4.65c0-3.9-1.2-5.1-4-5.1-3.2,0-4.4,1.2-4.4,5.1v4.65c0,1.02.83,1.85,1.85,1.85Z"/>
    <path class="cls-1" d="M173.25,94.91c0-9.25,2.11-10.88,6.49-10.88,1.42,0,3.16.32,4.77.99.67.27,1.4-.2,1.4-.92v-8.92c0-.55.45-1,1-1h6.33c.55,0,1,.45,1,1v38.96c0,.55-.45,1-1,1h-5.18c-.47,0-.88-.33-.98-.78l-.03-.12c-.14-.63-.83-.97-1.41-.68-3.17,1.55-4.93,1.86-6.39,1.86-4.33,0-6.01-2.06-6.01-9.25v-11.26ZM181.58,104.81c0,3.03.6,3.95,2.33,3.95.41,0,.79-.05,1.27-.19.43-.12.73-.52.73-.97v-15.86c0-.47-.33-.88-.79-.98-.38-.08-.76-.14-1.22-.14-1.68,0-2.33.7-2.33,4.01v10.18Z"/>
    <path class="cls-1" d="M197.77,95.99c0-9.04,2-11.96,10.55-11.96,9.09,0,10.23,3.57,10.23,12.34v4.25c0,.55-.45,1-1,1h-10.44c-.55,0-1,.45-1,1v3.49c0,2.54.43,3.14,2.17,3.19,1.84,0,2.33-.81,2.33-2.54v-1.27c0-.55.45-1,1-1h5.95c.55,0,1,.45,1,1v1.6c0,5.68-2.6,8.33-10.34,8.33-8.77,0-10.45-3.03-10.45-11.37v-8.06ZM207.1,96.37h2.54c.55,0,1-.45,1-1v-2.51c0-2.11-.65-2.76-2.16-2.76-1.73,0-2.38.65-2.38,2.76v2.51c0,.55.45,1,1,1Z"/>
    <path class="cls-1" d="M70.9,187.48v-53.3c0-1.02.83-1.85,1.85-1.85h9.58c.86,0,1.61.59,1.8,1.43l.02.07c.27,1.16,1.56,1.75,2.63,1.23,4.45-2.19,8.18-3.31,11.92-3.22,7.1,0,10.8,3.3,10.8,15v40.65c0,1.02-.83,1.85-1.85,1.85h-11.69c-1.02,0-1.85-.83-1.85-1.85v-38.35c0-3.8-.4-5.1-2.8-5.1-1.1,0-2.26.16-3.55.45-.85.19-1.45.95-1.45,1.81v41.19c0,1.02-.83,1.85-1.85,1.85h-11.69c-1.02,0-1.85-.83-1.85-1.85Z"/>
    <path class="cls-1" d="M237.44,143.73h-3.09c-1.02,0-1.85.83-1.85,1.85v26.55c0,4.7.9,5.8,4.1,5.9h.85c1.02,0,1.85.83,1.85,1.85v7.59c0,1.02-.83,1.85-1.85,1.85h-5.95c-13.8,0-14.4-5.5-14.4-20.9v-22.85c0-1.02-.83-1.85-1.85-1.85h-.69c-1.02,0-1.85-.83-1.85-1.85v-7.69c0-1.02.83-1.85,1.85-1.85h.69c1.02,0,1.85-.83,1.85-1.85v-4.79c0-1.02.83-1.85,1.85-1.85h11.69c1.02,0,1.85.83,1.85,1.85v4.79c0,1.02.83,1.85,1.85,1.85h3.09c1.02,0,1.85.83,1.85,1.85v7.69c0,1.02-.83,1.85-1.85,1.85Z"/>
    <path class="cls-1" d="M243.69,153.93c0-16.7,3.7-22.1,19.5-22.1,16.8,0,18.9,6.6,18.9,22.8v7.85c0,1.02-.83,1.85-1.85,1.85h-19.29c-1.02,0-1.85.83-1.85,1.85v6.45c0,4.7.8,5.8,4,5.9,3.4,0,4.3-1.5,4.3-4.7v-2.35c0-1.02.83-1.85,1.85-1.85h10.99c1.02,0,1.85.83,1.85,1.85v2.95c0,10.5-4.8,15.4-19.1,15.4-16.2,0-19.3-5.6-19.3-21v-14.9ZM260.95,154.63h4.69c1.02,0,1.85-.83,1.85-1.85v-4.65c0-3.9-1.2-5.1-4-5.1-3.2,0-4.4,1.2-4.4,5.1v4.65c0,1.02.83,1.85,1.85,1.85Z"/>
    <path class="cls-1" d="M287.69,148.23c0-10.1,5.7-16.4,18.2-16.4,12.7-.1,19.3,5.7,19.3,18.4v1.4h-13.6v-.4c0-5.9-1.3-7.7-5.1-7.7-2.3,0-4.1,1.1-4.1,3.6v.1c0,2.2,1.2,4.6,5.3,6.8l7.9,4.1c6.8,3.6,10.1,8.3,10.1,15.7v.1c0,10.4-6.6,15.8-19.2,15.9-12.7,0-18.5-4.5-18.5-18.2v-.15c0-1.02.83-1.85,1.85-1.85h11.45v.9c0,5.8,1.6,7.5,5.2,7.5,3,0,4.6-1.4,4.6-3.8v-.1c0-2.3-1.2-4.2-4.5-5.9l-8.2-4.2c-6.8-3.5-10.7-7.8-10.7-15.7v-.1Z"/>
    <path class="cls-1" d="M169.14,236.86c7.11,3.6,15.53,1.01,19.27-6.25,1.86-3.6,2.03-9.24,1.03-13.39l-5.36-22.22c-14.37,6.54-29.82,5.44-42.91-3.94-8.31-5.96-15.17-13.87-19.23-23.93-7.12-17.63-6.32-37.68,2.16-54.17,5.63-10.95,13.11-19.53,21.42-28,1.77-1.81,3.6-4.09,4.97-6.16-5.82-22.06-17.49-58.05-1.11-76.47,7.17-8.07,18.41,6.93,21.35,13.75,11.54,26.77,9.46,58.08-9.99,79.06l6.84,25.58c18.76-3.85,35.67,9.72,38.86,29.73,2.74,17.24-3.66,33.35-17.84,42.01,2.25,8.93,4.45,17.46,5.89,26.46,2.03,12.71-5.73,23.73-17.6,24.41-8.54.49-16.94-3.48-21.47-11.28-3.62-6.22-1.99-13.78,3.19-17.32,5.52-3.78,12.97-1.54,16.13,4.63s.96,13.74-5.6,17.51ZM155.45,72.39c10.45-14.01,18.75-34.77,10.49-51.39-1.46-2.28-3.59-4.3-6.02-4.37-1.91-.05-4.14,1.6-5.77,3.31-9.31,15.23-2.07,34.64,1.3,52.45ZM156.73,161.81c1.58,5.7,5.11,9.99,8.79,14.52-13.17-2.74-21.16-15.67-20.28-29.5.71-11.19,7.52-19.9,17.65-24.33l-6.7-23.19-11.87,11.06c-7.61,8.82-14.88,18.41-17.51,30.44-2.98,13.6,2.2,27.04,10.75,37.31,11.54,13.87,29.05,18.94,44.92,11.6l-14.03-48.29c-9.18,3.13-14.45,10.55-11.73,20.38ZM191.74,147.45c-4.24-6.36-11.3-8.54-18.97-7.24l13.82,46.22c11.69-9.18,14.02-25.66,5.14-38.98Z"/>
  </g>
</svg>