<svg xmlns="http://www.w3.org/2000/svg" xmlns:xlink="http://www.w3.org/1999/xlink" width="48.563" height="53.898" viewBox="0 0 48.563 53.898">
  <defs>
    <clipPath id="clip-path">
      <rect id="Rectangle_35" data-name="Rectangle 35" width="48.563" height="53.898" fill="#ffc720"/>
    </clipPath>
  </defs>
  <g id="play_1" clip-path="url(#clip-path)">
    <path id="Tracé_11" data-name="Tracé 11" d="M5.542,53.9H4.278A4.648,4.648,0,0,1,.792,51.363,8.183,8.183,0,0,1,0,47.852V6.047A7.927,7.927,0,0,1,.766,2.6,4.453,4.453,0,0,1,5.129.01,8.24,8.24,0,0,1,8.72,1.148L45.089,22.006a8.022,8.022,0,0,1,2.653,2.414c1.99,2.881.074,5.91-2.653,7.474L8.647,52.794a10.9,10.9,0,0,1-3.106,1.1" transform="translate(0 0)" fill="#ffc720"/>
  </g>
</svg>
