<svg xmlns="http://www.w3.org/2000/svg" xmlns:xlink="http://www.w3.org/1999/xlink" width="4937.819" height="803.145" viewBox="0 0 4937.819 803.145">
  <defs>
    <filter id="Tracé_8" x="0" y="0" width="4937.819" height="803.145" filterUnits="userSpaceOnUse">
      <feOffset dy="3" input="SourceAlpha"/>
      <feGaussianBlur stdDeviation="3" result="blur"/>
      <feFlood flood-opacity="0.161"/>
      <feComposite operator="in" in2="blur"/>
      <feComposite in="SourceGraphic"/>
    </filter>
    <clipPath id="clip-path">
      <rect id="Rectangle_27" data-name="Rectangle 27" width="4920" height="106" fill="#5d98c0"/>
    </clipPath>
  </defs>
  <g id="vague" transform="translate(9 6)">
    <g transform="matrix(1, 0, 0, 1, -9, -6)" filter="url(#Tracé_8)">
      <path id="Tracé_8-2" data-name="Tracé 8" d="M0,0H4919.75l.069,748.046-298.889,37.1-526.057-86.691L3541.2,785.145l-521.93-91.029-579.889,91.029L1916.55,695.2l-537.995,89.944L810.582,700.622,250.85,785.145,2.791,738.572Z" transform="translate(9 6)" fill="#5d98c0"/>
    </g>
    <g id="Groupe_15" data-name="Groupe 15" transform="translate(0 686.072)">
      <g id="Groupe_14" data-name="Groupe 14" transform="translate(0 0)" clip-path="url(#clip-path)">
        <path id="Tracé_7" data-name="Tracé 7" d="M3262.378,65.075c-147.757-45.8-345.387-51.441-493.455-4.09C2591.406,117.755,2360.3,123.441,2179.3,65.23c-153.75-49.444-358.062-50.784-513.118-1.16-176.116,56.362-402.913,55.624-580.181.5-146.954-45.69-343.747-46.663-490.863-.817-178.091,55.5-407.227,57.547-584.132-.013C-1.716,59.608-3.3,50.52,5.688,44.7c7.256-4.7,26.771-7.312,39.379-3.246,158.749,51.191,360.822,48.317,518.839-.877C732.641-11.956,955.649-9.2,1123.189,42.783c152.928,47.447,350.955,48.669,503.457.168,174.03-55.348,402.492-58.317,578.952-2.1,146.915,46.8,347.6,53.375,498.137,5.18,175.092-56.056,403.917-62.106,583.271-5.755,159.892,50.237,363.161,50.305,523.416-.438,166.631-52.761,391.893-53.244,558.978-.64,154.2,48.547,349.486,52.055,507.775,4.659,11.594-3.472,32,.1,38.054,4.87,5.75,4.533,8.126,13.871-6.462,18.227-164.158,49.021-383.833,52.681-548.98.649-157.586-49.652-359.3-55.193-519.858-4.272-172.681,54.763-399.392,56.973-577.55,1.749" transform="translate(-0.001 0.087)" fill="#5d98c0"/>
      </g>
    </g>
  </g>
</svg>
