<svg xmlns="http://www.w3.org/2000/svg" xmlns:xlink="http://www.w3.org/1999/xlink" width="4949.127" height="803.145" viewBox="0 0 4949.127 803.145">
  <defs>
    <filter id="Tracé_8" x="0" y="0" width="4949.127" height="803.145" filterUnits="userSpaceOnUse">
      <feOffset dy="3" input="SourceAlpha"/>
      <feGaussianBlur stdDeviation="3" result="blur"/>
      <feFlood flood-opacity="0.161"/>
      <feComposite operator="in" in2="blur"/>
      <feComposite in="SourceGraphic"/>
    </filter>
    <clipPath id="clip-path">
      <rect id="Rectangle_27" data-name="Rectangle 27" width="4931" height="106" fill="#5d98c0"/>
    </clipPath>
  </defs>
  <g id="vague" transform="translate(9.102 6)">
    <g transform="matrix(1, 0, 0, 1, -9.1, -6)" filter="url(#Tracé_8)">
      <path id="Tracé_8-2" data-name="Tracé 8" d="M0,0,4931.016.041l.01,748.072-299.763,37.032-527.233-86.691-554.916,86.691-523.1-91.029L2444.83,785.145l-524-89.944-539.2,89.944L812.394,700.622,251.411,785.145-.1,740.631Z" transform="translate(9.1 6)" fill="#5d98c0"/>
    </g>
    <g id="Groupe_15" data-name="Groupe 15" transform="translate(0 686.072)">
      <g id="Groupe_14" data-name="Groupe 14" transform="translate(0 0)" clip-path="url(#clip-path)">
        <path id="Tracé_7" data-name="Tracé 7" d="M3269.672,65.075c-148.087-45.8-346.159-51.441-494.558-4.09-177.914,56.769-409.537,62.456-590.941,4.245-154.094-49.444-358.862-50.784-514.265-1.16-176.51,56.362-403.814,55.624-581.478.5-147.282-45.69-344.515-46.663-491.96-.817-178.489,55.5-408.137,57.547-585.438-.013C-1.72,59.608-3.307,50.52,5.7,44.7c7.272-4.7,26.83-7.312,39.467-3.246,159.1,51.191,361.629,48.317,520-.877C734.279-11.956,957.786-9.2,1125.7,42.783c153.27,47.447,351.739,48.669,504.582.168,174.419-55.348,403.392-58.317,580.246-2.1,147.244,46.8,348.374,53.375,499.251,5.18,175.484-56.056,404.82-62.106,584.575-5.755,160.25,50.237,363.973,50.305,524.587-.438,167-52.761,392.769-53.244,560.227-.64,154.54,48.547,350.268,52.055,508.911,4.659,11.62-3.472,32.075.1,38.139,4.87,5.762,4.533,8.144,13.871-6.477,18.227-164.525,49.021-384.691,52.681-550.208.649-157.939-49.652-360.1-55.193-521.021-4.272-173.067,54.763-400.285,56.973-578.842,1.749" transform="translate(-0.001 0.087)" fill="#5d98c0"/>
      </g>
    </g>
  </g>
</svg>
